HIERARCHY
ROOT Motion_Root
{
	OFFSET 0.000000 1.000000 0.000000
	CHANNELS 6 Xposition Yposition Zposition Zrotation Yrotation Xrotation
	JOINT Balance_Root
	{
		OFFSET 0.000000 0.000000 0.000000
		CHANNELS 3 Zrotation Yrotation Xrotation
		JOINT Character_Root
		{
			OFFSET 0.000000 0.066940 0.019576
			CHANNELS 6 Xposition Yposition Zposition Zrotation Yrotation Xrotation
			JOINT Pelvis
			{
				OFFSET 0.000000 -0.000049 0.000000
				CHANNELS 3 Zrotation Yrotation Xrotation
				JOINT Hip_L
				{
					OFFSET 0.099629 -0.096262 0.000507
					CHANNELS 3 Zrotation Yrotation Xrotation
					JOINT Knee_L
					{
						OFFSET 0.440729 -0.000000 -0.000000
						CHANNELS 3 Zrotation Yrotation Xrotation
						JOINT Ankle_L
						{
							OFFSET 0.418593 -0.000000 -0.000000
							CHANNELS 3 Zrotation Yrotation Xrotation
							JOINT Ball_L
							{
								OFFSET 0.147135 0.000000 -0.000000
								CHANNELS 3 Zrotation Yrotation Xrotation
								End Site
								{
									OFFSET 0.000000 0.050456 0.000000
								}
							}
						}
					}
				}
				JOINT Hip_R
				{
					OFFSET -0.099629 -0.096263 0.000507
					CHANNELS 3 Zrotation Yrotation Xrotation
					JOINT Knee_R
					{
						OFFSET -0.440729 0.000000 0.000000
						CHANNELS 3 Zrotation Yrotation Xrotation
						JOINT Ankle_R
						{
							OFFSET -0.418593 0.000000 -0.000001
							CHANNELS 3 Zrotation Yrotation Xrotation
							JOINT Ball_R
							{
								OFFSET -0.147135 0.000000 0.000001
								CHANNELS 3 Zrotation Yrotation Xrotation
								End Site
								{
									OFFSET 0.000000 0.050456 0.000000
								}
							}
						}
					}
				}
			}
			JOINT Spine_1
			{
				OFFSET 0.000000 0.010172 0.000032
				CHANNELS 3 Zrotation Yrotation Xrotation
				JOINT Spine_2
				{
					OFFSET 0.150000 0.000000 -0.000000
					CHANNELS 3 Zrotation Yrotation Xrotation
					JOINT Spine_3
					{
						OFFSET 0.149789 0.000000 -0.000000
						CHANNELS 3 Zrotation Yrotation Xrotation
						JOINT Clavicle_L
						{
							OFFSET 0.178472 0.004071 -0.029517
							CHANNELS 3 Zrotation Yrotation Xrotation
							JOINT Shoulder_L
							{
								OFFSET 0.184188 -0.037845 0.013991
								CHANNELS 3 Zrotation Yrotation Xrotation
								JOINT Elbow_L
								{
									OFFSET 0.294246 0.000000 -0.000000
									CHANNELS 3 Zrotation Yrotation Xrotation
									JOINT Forarm_L
									{
										OFFSET 0.154423 0.000000 0.000000
										CHANNELS 3 Zrotation Yrotation Xrotation
										JOINT Wrist_L
										{
											OFFSET 0.142091 0.000000 0.000000
											CHANNELS 3 Zrotation Yrotation Xrotation
											JOINT Middle_Base_L
											{
												OFFSET 0.095028 0.000000 -0.000000
												CHANNELS 3 Zrotation Yrotation Xrotation
												JOINT Middle_L
												{
													OFFSET 0.047568 -0.000000 0.000000
													CHANNELS 3 Zrotation Yrotation Xrotation
													End Site
													{
														OFFSET 0.000000 0.050456 0.000000
													}
												}
											}
											JOINT Thumb_Base_L
											{
												OFFSET 0.008685 0.035442 -0.015288
												CHANNELS 3 Zrotation Yrotation Xrotation
												JOINT Thumb_L
												{
													OFFSET 0.048268 0.000000 -0.000000
													CHANNELS 3 Zrotation Yrotation Xrotation
													End Site
													{
														OFFSET 0.000000 0.050456 0.000000
													}
												}
											}
										}
									}
								}
							}
						}
						JOINT Neck
						{
							OFFSET 0.239309 0.000000 -0.000000
							CHANNELS 3 Zrotation Yrotation Xrotation
							JOINT Head
							{
								OFFSET 0.069269 0.000000 -0.000000
								CHANNELS 3 Zrotation Yrotation Xrotation
								JOINT Jaw
								{
									OFFSET 0.031254 0.000000 0.000000
									CHANNELS 3 Zrotation Yrotation Xrotation
									End Site
									{
										OFFSET 0.000000 0.050456 0.000000
									}
								}
							}
						}
						JOINT Clavicle_R
						{
							OFFSET 0.178474 0.004071 0.029517
							CHANNELS 3 Zrotation Yrotation Xrotation
							JOINT Shoulder_R
							{
								OFFSET -0.184187 0.037850 -0.013991
								CHANNELS 3 Zrotation Yrotation Xrotation
								JOINT Elbow_R
								{
									OFFSET -0.294245 0.000000 -0.000001
									CHANNELS 3 Zrotation Yrotation Xrotation
									JOINT Forarm_R
									{
										OFFSET -0.154426 0.000001 0.000003
										CHANNELS 3 Zrotation Yrotation Xrotation
										JOINT Wrist_R
										{
											OFFSET -0.142086 -0.000001 -0.000003
											CHANNELS 3 Zrotation Yrotation Xrotation
											JOINT Index_Base_R
											{
												OFFSET -0.095816 -0.031714 0.001946
												CHANNELS 3 Zrotation Yrotation Xrotation
												JOINT Index_R
												{
													OFFSET -0.045455 0.000000 0.000000
													CHANNELS 3 Zrotation Yrotation Xrotation
													End Site
													{
														OFFSET 0.000000 0.050456 0.000000
													}
												}
											}
											JOINT Middle_Base_R
											{
												OFFSET -0.095029 0.000000 -0.000000
												CHANNELS 3 Zrotation Yrotation Xrotation
												JOINT Middle_R
												{
													OFFSET -0.047568 -0.000001 -0.000000
													CHANNELS 3 Zrotation Yrotation Xrotation
													End Site
													{
														OFFSET 0.000000 0.050456 0.000000
													}
												}
											}
											JOINT Thumb_Base_R
											{
												OFFSET -0.008688 -0.035441 0.015288
												CHANNELS 3 Zrotation Yrotation Xrotation
												JOINT Thumb_R
												{
													OFFSET -0.048266 0.000002 -0.000000
													CHANNELS 3 Zrotation Yrotation Xrotation
													End Site
													{
														OFFSET 0.000000 0.050456 0.000000
													}
												}
											}
											JOINT R_Wrist_Grapple
											{
												OFFSET -0.075001 0.003295 0.119021
												CHANNELS 6 Xposition Yposition Zposition Zrotation Yrotation Xrotation
												End Site
												{
													OFFSET 0.000000 0.050456 0.000000
												}
											}
										}
									}
								}
							}
						}
					}
				}
			}
		}
	}
	JOINT Root_Grapple
	{
		OFFSET 0.000000 -1.000000 0.000000
		CHANNELS 3 Zrotation Yrotation Xrotation
		End Site
		{
			OFFSET 0.000000 0.050456 0.000000
		}
	}
}
MOTION
Frames: 4
Frame Time: 0.0333333
0.000000 0.000000 0.000000 0.000000 0.000000 -0.000000 0.000000 0.000000 -0.000000 -0.000016 -0.025345 0.018541 0.000000 0.000000 -0.000000 1.677032 -6.919559 2.344527 -83.633736 8.795238 105.009218 25.817090 -0.000000 0.000000 -72.890299 4.078815 -9.478235 -26.421217 2.635525 -0.618775 79.434028 -4.599091 -73.997737 26.373517 -0.000000 0.000000 -77.357553 2.197838 -7.384246 -26.409136 1.756960 -0.412269 90.882686 -5.164199 -96.596222 3.203504 -0.074581 0.540189 0.692069 -0.080232 0.545085 -115.125936 80.187220 -29.980498 -67.584029 6.151632 -114.783201 34.127490 -0.000000 0.000000 0.000000 0.000000 -5.034037 2.462263 0.923499 -0.001142 1.398808 25.701150 -83.873720 30.121437 -0.000000 0.000000 16.603278 21.009367 -165.527719 9.032308 -0.000000 0.000000 27.548546 -1.250800 5.172440 84.176983 -0.349353 0.287660 28.618384 0.000000 -0.000000 100.376488 88.298672 8.885140 -71.328911 9.612176 -108.043389 97.603295 -0.000000 0.000000 0.000000 -0.000000 40.812461 -14.611316 10.062468 -0.627940 -5.452119 61.484880 -99.154341 53.340498 -0.806307 -0.405011 7.314551 65.260301 -84.499600 58.601820 3.053152 3.783646 13.935302 40.322833 153.605309 19.148744 7.122796 1.202959 0.000000 0.000000 0.000000 0.000000 -90.000000 179.999995 0.000000 0.000000 -0.000000
0.000000 0.000000 0.000000 0.000000 0.000000 -0.000000 0.000000 0.000000 -0.000000 -0.000053 -0.025511 0.016803 0.000000 0.000000 -0.000000 1.592861 -6.305276 2.609759 -83.435528 8.599313 105.443662 25.888180 -0.000000 0.000000 -73.143891 3.984306 -9.403165 -26.421217 2.635525 -0.618775 79.640655 -4.330183 -74.583872 26.373517 -0.000000 0.000000 -77.442326 2.205914 -7.390406 -26.409136 1.756960 -0.412269 90.816105 -5.417931 -96.007981 3.109813 -0.137726 0.648730 0.596629 -0.143869 0.652071 -114.575148 80.043563 -29.481949 -67.848606 6.429907 -115.378000 34.898256 -0.000000 0.000000 0.000000 0.000000 -5.869214 0.433864 2.413217 0.005640 1.398808 25.701150 -83.873720 30.121437 -0.000000 0.000000 16.603278 21.009367 -165.527719 9.032308 -0.000000 0.000000 27.535726 -1.350909 5.136431 84.568801 -0.539623 0.681756 28.618384 0.000000 -0.000000 99.426365 88.385405 7.966218 -71.924174 9.427917 -107.157768 96.703840 -0.000000 0.000000 0.000000 -0.000000 40.812461 -14.805604 10.479272 -0.699553 -5.452119 61.484880 -99.154341 53.340498 -0.806307 -0.405011 7.314551 65.260301 -84.499600 58.601820 3.053152 3.783646 13.935302 40.322833 153.605309 19.148744 7.122796 1.202959 0.000000 0.000000 0.000000 0.000000 -90.000000 179.999995 0.000000 0.000000 -0.000000
0.000000 0.000000 0.000000 0.000000 0.000000 -0.000000 0.000000 0.000000 -0.000000 -0.000090 -0.025677 0.015065 0.000000 0.000000 -0.000000 1.511640 -5.690593 2.873795 -83.174681 7.997054 106.032685 25.959270 -0.000000 0.000000 -73.397581 3.890128 -9.327684 -26.421217 2.635525 -0.618775 79.844457 -4.059167 -75.168868 26.373517 -0.000000 0.000000 -77.527102 2.213982 -7.396578 -26.409136 1.756960 -0.412269 90.746876 -5.670984 -95.419155 3.016002 -0.200693 0.757375 0.501069 -0.207329 0.759163 -114.039279 79.899100 -28.998333 -68.116224 6.705434 -115.974418 35.669022 -0.000000 0.000000 0.000000 0.000000 -6.704390 -1.192878 3.025598 0.003481 1.398808 25.701150 -83.873720 30.121437 -0.000000 0.000000 16.603278 21.009367 -165.527719 9.032308 -0.000000 0.000000 27.522970 -1.451027 5.100442 84.959316 -0.732579 1.074556 28.618384 0.000000 -0.000000 98.370460 88.471660 6.941512 -72.521944 9.252762 -106.270712 95.804385 -0.000000 0.000000 0.000000 -0.000000 40.812461 -14.432812 10.277024 -0.687147 -5.452119 61.484880 -99.154341 53.340498 -0.806307 -0.405011 7.314551 65.260301 -84.499600 58.601820 3.053152 3.783646 13.935302 40.322833 153.605309 19.148744 7.122796 1.202959 0.000000 0.000000 0.000000 0.000000 -90.000000 179.999995 0.000000 0.000000 -0.000000
0.000000 0.000000 0.000000 0.000000 0.000000 -0.000000 0.000000 0.000000 -0.000000 -0.000127 -0.025843 0.013327 0.000000 0.000000 -0.000000 1.433348 -5.075565 3.136680 -82.920447 7.392148 106.618132 26.030360 -0.000000 0.000000 -73.651367 3.796285 -9.251795 -26.421217 2.635525 -0.618775 80.045408 -3.786091 -75.752704 26.373517 -0.000000 0.000000 -77.611880 2.222040 -7.402762 -26.409136 1.756960 -0.412269 90.675005 -5.923315 -94.829759 2.922070 -0.263483 0.866124 0.405391 -0.270610 0.866363 -113.517781 79.753867 -28.529098 -68.262170 7.152678 -117.053518 36.439788 -0.000000 0.000000 0.000000 0.000000 -6.315613 -1.677427 2.646157 -0.000261 1.398808 25.701150 -83.873720 30.121437 -0.000000 0.000000 16.603278 21.009367 -165.527719 9.032308 -0.000000 0.000000 27.510275 -1.551152 5.064473 85.348519 -0.928203 1.466051 28.618384 0.000000 -0.000000 97.190552 88.557352 5.792804 -73.122101 9.086766 -105.382280 94.904929 -0.000000 0.000000 0.000000 -0.000000 41.260878 -14.060300 10.074700 -0.676085 -5.452119 61.484880 -99.154341 53.340498 -0.806307 -0.405011 7.314551 65.260301 -84.499600 58.601820 3.053152 3.783646 13.935302 40.322833 153.605309 19.148744 7.122796 1.202959 0.000000 0.000000 0.000000 0.000000 -90.000000 179.999995 0.000000 0.000000 -0.000000
